<svg xmlns="http://www.w3.org/2000/svg" viewBox="0 0 64 64" fill="none">
  <defs>
    <linearGradient id="gp" x1="32" y1="6" x2="32" y2="58" gradientUnits="userSpaceOnUse">
      <stop stop-color="#FFE07A"/>
      <stop offset="1" stop-color="#F2941B"/>
    </linearGradient>
  </defs>
  <path d="M22 20h20c7.2 0 13 5.8 13 13 0 6.3-4.5 11.6-10.6 12.7-3 .5-5.3-1.3-6.6-3.6l-1.4-2.4c-.9-1.6-2.6-2.6-4.5-2.6h-5.8c-1.9 0-3.6 1-4.5 2.6l-1.4 2.4c-1.3 2.3-3.6 4.1-6.6 3.6C7.5 44.6 3 39.3 3 33c0-7.2 5.8-13 13-13h6z" fill="url(#gp)"/>
  <path d="M16 27v5M13.5 29.5h5" stroke="#7A3D00" stroke-width="2.6" stroke-linecap="round"/>
  <circle cx="42" cy="28" r="2.6" fill="#7A3D00"/>
  <circle cx="48" cy="34" r="2.6" fill="#7A3D00"/>
  <path d="M24 18c0-2.8 2.2-5 5-5h6c2.8 0 5 2.2 5 5" stroke="url(#gp)" stroke-width="4" stroke-linecap="round"/>
</svg>
